<svg id="Layer_1" data-name="Layer 1" xmlns="http://www.w3.org/2000/svg" viewBox="0 0 250 250"><defs><style>.cls-1{fill:#ccc;}.cls-2{fill:#4d4d4d;}.cls-3{fill:#f2f2f2;}</style></defs><title>homecom-logo</title><path class="cls-1" d="M38.83,178.33a4.16,4.16,0,0,1-4.16-4.15V103.13a4.17,4.17,0,0,1,1.69-3.35l45.7-33.71a4.16,4.16,0,0,1,4.92,0l46.14,33.72a4.16,4.16,0,0,1,1.71,3.36v71a4.16,4.16,0,0,1-4.16,4.15Z"/><path class="cls-1" d="M84.53,66.26a3.11,3.11,0,0,1,1.86.61l46.14,33.72a3.14,3.14,0,0,1,1.3,2.55v71a3.15,3.15,0,0,1-3.16,3.15H38.83a3.15,3.15,0,0,1-3.16-3.15V103.13A3.15,3.15,0,0,1,37,100.59l45.7-33.71a3.12,3.12,0,0,1,1.88-.62m0-2a5.11,5.11,0,0,0-3.06,1L35.77,99a5.18,5.18,0,0,0-2.1,4.15v71.05a5.16,5.16,0,0,0,5.16,5.15h91.84a5.16,5.16,0,0,0,5.16-5.15v-71A5.18,5.18,0,0,0,133.71,99L87.57,65.25a5.12,5.12,0,0,0-3-1Z"/><path class="cls-1" d="M119.33,178.21a4.17,4.17,0,0,1-4.16-4.16V103a4.16,4.16,0,0,1,1.69-3.34L162.56,66a4.07,4.07,0,0,1,2.47-.82,4.15,4.15,0,0,1,2.45.8l46.14,33.72a4.19,4.19,0,0,1,1.71,3.36v71a4.17,4.17,0,0,1-4.16,4.16Z"/><path class="cls-1" d="M165,66.13a3.18,3.18,0,0,1,1.86.61L213,100.46a3.15,3.15,0,0,1,1.3,2.55v71a3.15,3.15,0,0,1-3.16,3.16H119.33a3.15,3.15,0,0,1-3.16-3.16V103a3.18,3.18,0,0,1,1.28-2.54l45.7-33.71a3.18,3.18,0,0,1,1.88-.62m0-2a5.11,5.11,0,0,0-3.06,1l-45.7,33.71a5.19,5.19,0,0,0-2.1,4.15v71.05a5.16,5.16,0,0,0,5.16,5.16h91.84a5.16,5.16,0,0,0,5.16-5.16V103a5.14,5.14,0,0,0-2.12-4.16L168.07,65.13a5.13,5.13,0,0,0-3-1Z"/><path class="cls-2" d="M70.61,194.92a4.28,4.28,0,0,1-4.27-4.28V99.47A4.31,4.31,0,0,1,68.07,96l54.38-40.11a4.25,4.25,0,0,1,5.06,0L182.41,96a4.27,4.27,0,0,1,1.75,3.45v91.16a4.28,4.28,0,0,1-4.27,4.28Z"/><path class="cls-2" d="M125,56.08a3.3,3.3,0,0,1,1.93.63l54.9,40.12a3.29,3.29,0,0,1,1.34,2.65v91.16a3.27,3.27,0,0,1-3.27,3.28H70.61a3.27,3.27,0,0,1-3.27-3.28V99.47a3.28,3.28,0,0,1,1.33-2.64L123,56.72a3.32,3.32,0,0,1,1.95-.64m0-2a5.24,5.24,0,0,0-3.13,1L67.48,95.22a5.3,5.3,0,0,0-2.14,4.25v91.17a5.28,5.28,0,0,0,5.27,5.28H179.89a5.28,5.28,0,0,0,5.27-5.28V99.48A5.3,5.3,0,0,0,183,95.22L128.1,55.1a5.22,5.22,0,0,0-3.11-1Z"/><path class="cls-3" d="M86.72,120H79.93v9.42H71.6V104.59h8.3V113h6.79v-8.41h8.37v24.79H86.72Z"/><path class="cls-3" d="M111,103.89c7.85,0,13.8,5,13.8,13s-6,13.23-13.8,13.23-13.75-5.29-13.75-13.23S103.15,103.89,111,103.89Zm0,18.49c2.81,0,4.9-2.31,4.9-5.53s-2.09-5.33-4.9-5.33-4.9,2.11-4.9,5.33S108.16,122.38,111,122.38Z"/><path class="cls-3" d="M135.18,115.38l.39,14H127.8V104.59h10.88l4.48,13.34h.18l3.88-13.34h11.24v24.79h-8.08l.24-13.93-.21,0-4.62,14h-5.88l-4.55-14Z"/><path class="cls-3" d="M160.68,104.59h17.75v6.93h-9.91v2.14h9.91v6.48h-9.91v2.31h9.91v6.93H160.68Z"/><path class="cls-3" d="M88.71,138.62A18.71,18.71,0,0,1,101.17,143L94.6,151a6.31,6.31,0,0,0-5.26-2.39c-3.56,0-6.44,2.66-6.44,6.89a6.52,6.52,0,0,0,11.7,4.23l6.57,7.87a17.33,17.33,0,0,1-12.46,4.73c-9.63,0-17.33-6.8-17.33-16.83C71.38,145.23,79.08,138.62,88.71,138.62Z"/><path class="cls-3" d="M118.49,138.62c10.08,0,17.73,6.43,17.73,16.65s-7.65,17-17.73,17-17.69-6.8-17.69-17S108.41,138.62,118.49,138.62Zm0,23.76c3.6,0,6.3-3,6.3-7.11s-2.7-6.84-6.3-6.84-6.3,2.7-6.3,6.84S114.84,162.38,118.49,162.38Z"/><path class="cls-3" d="M148.51,153.38l.5,18H139V139.52h14l5.76,17.14H159l5-17.14h14.45v31.86H168l.32-17.91-.27-.05-5.94,18h-7.56l-5.85-18Z"/></svg>