<svg id="Layer_1" data-name="Layer 1" xmlns="http://www.w3.org/2000/svg" viewBox="0 0 512.57 66.33"><defs><style>.cls-1{fill:#1a1a1a;}</style></defs><title>thermo-logo</title><path class="cls-1" d="M31.8,18.56V52.27H21.54V18.56h-12V9.8H43.8v8.76Z"/><path class="cls-1" d="M48.78,9.8h7.56V27H76.2V9.8h7.56V52.27H76.2V33.44H56.34V52.27H48.78Z"/><path class="cls-1" d="M93.12,9.8h28.14v6.6H100.68V27.19h19.5v6.36h-19.5v12h21.66v6.72H93.12Z"/><path class="cls-1" d="M136.14,52.27H130.2V9.8h13.62c8.22,0,15.12,3.12,15.12,11.76,0,6.23-4.26,10.19-10.32,11.22L160.5,52.27h-7.2l-10.8-18.9h-6.36Zm0-23.87H143c5.58,0,10-1.75,10-6.84s-4.38-6.72-9.54-6.72h-7.26Z"/><path class="cls-1" d="M188.52,45h.06L202.79,9.8h6.6V52.27h-4.32V15.38H205L189.6,52.27h-2.28L172,15.38h-.12V52.27h-4.32V9.8h6.6Z"/><path class="cls-1" d="M240.53,53.35c-12.65,0-22.13-9.42-22.13-22.32s9.48-22.31,22.13-22.31S262.67,18.14,262.67,31,253.19,53.35,240.53,53.35Zm0-40.85C229.62,12.5,223,21.14,223,31s6.66,18.48,17.57,18.48S258.11,40.93,258.11,31,251.45,12.5,240.53,12.5Z"/><path class="cls-1" d="M292.85,20.84a10.28,10.28,0,0,0-7.56-3.66c-2.64,0-5.94.9-5.94,4.26,0,2.82,2.52,3.71,6.54,5,5.76,1.87,13.2,4.33,13.2,12.78,0,9.78-7.86,14.16-16.26,14.16-6.06,0-12.18-2.22-15.89-6.12l6.71-6.84a12.57,12.57,0,0,0,9.18,4.5c3.12,0,5.88-1.2,5.88-4.61,0-3.25-3.24-4.27-8.82-6.07C274.49,32.48,269,29.71,269,22c0-9.41,8.51-13.31,16.43-13.31a21.24,21.24,0,0,1,13.92,5.22Z"/><path class="cls-1" d="M306.17,9.8h28.14v6.6H313.73V27.19h19.5v6.36h-19.5v12h21.66v6.72H306.17Z"/><path class="cls-1" d="M373.43,19.76c-2.22-3.06-6.24-4.38-9.66-4.38-8.76,0-14.7,6.77-14.7,15.53,0,9.24,5.64,15.66,14.4,15.66a12.47,12.47,0,0,0,10.32-4.92l6.06,4.26c-3.72,4.68-9.24,7.44-16.44,7.44-13.26,0-22.68-9.18-22.68-22.44,0-13.61,10-22.19,23-22.19,5.52,0,12.06,2,15.42,6.48Z"/><path class="cls-1" d="M384.71,36.55V9.8h5.94V36.19C390.65,42,393.29,48,401.21,48s10.56-6,10.56-11.82V9.8h5.94V36.55c0,8.7-5.28,16.8-16.5,16.8S384.71,45.25,384.71,36.55Z"/><path class="cls-1" d="M432.53,52.27h-4.32V9.8h12.48c8.4,0,14.52,3.06,14.52,11.34,0,6.3-4.68,10.26-10.86,10.92l12.42,20.21h-5.28L439.73,32.41h-7.2Zm0-23.58H440c6.9,0,10.86-2.51,10.86-7.55,0-5.58-4.26-7.62-10.68-7.62h-7.68Z"/><path class="cls-1" d="M468.47,48.43h22.74v3.84H464.15V9.8h26.34v3.84h-22V28.28h20.58v3.78H468.47Z"/></svg>